<?xml version="1.0" encoding="utf-8"?>
<!-- Generator: Adobe Illustrator 18.1.0, SVG Export Plug-In . SVG Version: 6.00 Build 0)  -->
<svg version="1.1" id="Layer_1" xmlns="http://www.w3.org/2000/svg" xmlns:xlink="http://www.w3.org/1999/xlink" x="0px" y="0px"
	 viewBox="0 0 1280 800" enable-background="new 0 0 1280 800" xml:space="preserve">
<g>
	<defs>
		<polyline id="SVGID_1_" points="-4,-2 1286,-2 1282,800 -8,800 		"/>
	</defs>
	<clipPath id="SVGID_2_">
		<use xlink:href="#SVGID_1_"  overflow="visible"/>
	</clipPath>
	<linearGradient id="SVGID_3_" gradientUnits="userSpaceOnUse" x1="-16" y1="244.831" x2="1286.1372" y2="244.831">
		<stop  offset="0" style="stop-color:#361205"/>
		<stop  offset="7.593358e-02" style="stop-color:#452416"/>
		<stop  offset="0.145" style="stop-color:#784334"/>
		<stop  offset="0.2001" style="stop-color:#764233"/>
		<stop  offset="0.266" style="stop-color:#53291A"/>
		<stop  offset="0.3204" style="stop-color:#361405"/>
		<stop  offset="0.3829" style="stop-color:#885641"/>
		<stop  offset="0.4278" style="stop-color:#7D493C"/>
		<stop  offset="0.4757" style="stop-color:#774239"/>
		<stop  offset="0.5329" style="stop-color:#693233"/>
		<stop  offset="0.5926" style="stop-color:#522223"/>
		<stop  offset="0.6306" style="stop-color:#441819"/>
		<stop  offset="0.6798" style="stop-color:#5B2300"/>
		<stop  offset="0.7259" style="stop-color:#53270C"/>
		<stop  offset="0.7809" style="stop-color:#492B1B"/>
		<stop  offset="0.8262" style="stop-color:#47221A"/>
		<stop  offset="0.8764" style="stop-color:#441819"/>
		<stop  offset="0.9385" style="stop-color:#452018"/>
		<stop  offset="1" style="stop-color:#462818"/>
	</linearGradient>
	<path clip-path="url(#SVGID_2_)" fill="url(#SVGID_3_)" d="M-16,800c0-436.7,3.6-732.7,3.6-1177.4c3,0,6,0,9.1,0
		c-0.1,7-0.3,14-0.3,21c-0.2,31.7-0.3,63.5-0.5,95.2c0,2.5,0,4.3,3.5,4.3c48.4-0.3,96.7-0.3,145.1-0.6c49.6-0.3,99.3-0.7,148.9-1.1
		c1,0,2-0.2,3.2-0.3c0-9.4,0-18.5,0-27.5c-0.2-30.3-0.3-60.7-0.5-91c3.5,0,6.9,0,10.4,0c0,8.2,0,16.4,0,24.7c0.2,0,0.4,0,0.6,0
		c0-8.2,0-16.4,0-24.7c32.6,0,65.2,0,97.9,0c0,2.9,0.1,5.8,0.1,8.7c0.1,31.2,0.1,62.4,0.2,93.6c0,4.5,0,8.9,0,13.7
		c17.1,0,33.5,0,49.9,0c80.9-0.2,161.7-0.4,242.6-0.6c9,0,8.9,0,8.8-9.2c-0.3-35.4-0.6-70.8-0.9-106.2c3.7,0,7.3,0,11,0
		c0.2,37.2,0.4,74.5,0.5,111.7c0,2.9,0.7,3.8,3.8,3.8c13.2-0.2,26.3-0.1,39.5-0.1c85.2,0,170.4-0.1,255.5-0.2c1.6,0,3.2-0.5,4.2-0.6
		c0-26.2,0-51.9,0-77.5c-0.1,0-0.2,0-0.3,0c0,2.2,0,4.4,0,6.6c-0.4-8.8-0.4-17.5-0.4-26.3c0-5.8-0.1-11.6-0.2-17.4
		c3.9,0,7.8,0,11.7,0c0,38.3,0,76.6,0,115.5c85.6,0,170.3,0,255.1,0c0,4,0,7.4,0,11.2c-1.5,0.1-2.8,0.2-4.2,0.2
		c-74.9-0.3-149.9-0.5-224.8-0.8c-7.5,0-14.9,0.1-22.4,0c-2.6-0.1-3.3,0.7-3.3,3.3c0.2,41.3,0.3,82.5,0.4,123.8
		c0.1,44.1,0.3,88.1,0.4,132.2c0,4.3,0,4.3,4.2,4.3c82.2,0.1,164.4,0.2,246.6,0.3c1,0,1.9,0,3.1,0c0,3.4,0,6.6,0,10.1
		c-84.5,0-168.9,0-253.6,0c0,1.1-0.1,2.1-0.1,3.1c0.3,71.3,0.5,142.5,0.8,213.8c0.1,14.8,0.2,29.6,0,44.4c0,3.4,1.1,4.1,4.2,4.1
		c51.2,0.1,102.4,0.3,153.6,0.5c30.6,0.1,61.1,0.2,91.7,0.3c1.1,0,2.1,0,3.4,0c0,3.6,0,6.8,0,10.6c-1.9,0-3.8,0-5.7,0
		c-39.1-0.1-78.2-0.1-117.3-0.3c-42-0.2-84-0.5-126-0.8c-3.1,0-3.9,0.8-3.9,4c0.2,42.9,0.2,85.7,0.3,128.6
		c0.1,42.5,0.1,85.1,0.1,127.6c0,2.8,1,3.4,3.5,3.4c25.7-0.1,51.4-0.1,77.1-0.1c31,0,62,0,93,0.1c24.9,0.1,49.9,0.2,74.8,0.4
		c1.3,0,2.6,0.1,4.1,0.2c0,12.9,0,25.5,0,38.9c-82.1-0.7-163.9-1.3-246.2-2c-0.1,1.6-0.4,3.9-0.4,6.2c0.4,72.9,0.6,126.6,1,199.5
		 M869.3,22.4c0-0.1,0-0.3,0-0.4c-48.9,0-97.8,0-146.7,0c-4.7,0-4.7,0-4.7,4.7c0.1,40.9,0.2,81.9,0.3,122.8
		c0.1,44.7,0.3,89.4,0.4,134.1c0,2.9,0.9,3.7,3.7,3.6c7.1-0.1,14.3,0.1,21.4,0.2c46.9,0,93.7,0,140.6,0.1
		c44.1,0.1,88.1,0.2,132.2,0.3c5.8,0,6.3-0.6,6.3-6.3c0-25.4-0.1-50.7-0.2-76.1c-0.2-59.4-0.5-118.8-0.8-178.2
		c0-4.5-0.3-4.8-4.8-4.8C967.8,22.4,918.5,22.4,869.3,22.4z M870.4,298.4c0-0.2,0-0.3,0-0.5c-49.2,0-98.5,0-147.7-0.1
		c-3.4,0-4,1-4,4.2c0.1,84.5,0.1,169.1,0.1,253.6c0,6.3-1.1,6,5.9,6c30.9,0.2,61.8,0.3,92.6,0.4c21.8,0,43.6-0.2,65.4-0.2
		c44.8,0,89.6,0,134.4,0c4.9,0,6-1.1,6-6.1c0-29.4-0.1-58.7-0.1-88.1c-0.1-54.6-0.1-109.3-0.2-163.9c0-5-0.4-5.4-5-5.4
		C968.7,298.4,919.5,298.4,870.4,298.4z M556,22c0,0,0-0.1,0-0.1c-47.5,0-95,0-142.5,0c-8.1,0-8.1-0.1-8.1,8.2
		c0.1,84.5,0.3,169.1,0.4,253.6c0,4.2,0.1,4.4,4.4,4.4c36.2,0,72.4,0,108.5-0.1c30.5-0.1,60.9-0.5,91.4-0.7
		c30.8-0.1,61.5-0.1,92.3-0.2c5.2,0,5.2-0.1,5.2-5.2c0-18,0-36.1,0-54.1c0-51.3,0-102.6,0-153.9c0-15.5,0-31.1,0-46.6
		c0-5.3,0-5.3-5.5-5.3c-0.4,0-0.9,0-1.3,0C652.5,22,604.3,22,556,22z M717.8,11.7c1.9,0.1,3.3,0.2,4.7,0.2c7.3,0,14.7,0,22,0
		c68.4,0.1,136.7,0.1,205.1,0.2c22.5,0,44.9,0.1,67.4,0.1c4.6,0,4.8-0.2,4.8-4.7c-0.1-17.6-0.1-35.2-0.2-52.8
		c-0.2-50.6-0.3-101.3-0.5-151.9c-0.1-16.1-0.2-32.2-0.4-48.3c-0.1-5.2-0.7-5.8-5.7-5.8c-17.3-0.1-34.6-0.2-51.8-0.3
		c-80.4,0-160.9,0-241.3,0c-4.6,0-4.5,0-4.5,4.7c0.2,77.3,0.4,154.6,0.6,231.9C717.9-6.2,717.8,2.6,717.8,11.7z M700.7,562.1
		c0-0.1,0-0.1,0-0.2c0.4,0,0.8,0,1.2-0.1c6.5-0.2,6.5-0.2,6.5-6.6c-0.2-47.5-0.3-95-0.5-142.5c-0.1-36.9-0.3-73.8-0.3-110.8
		c0-3.4-1-4.1-4.2-4.1c-17.6,0.2-35.2,0.1-52.8,0.1c-80.4,0-160.9-0.1-241.3-0.1c-1,0-2.1,0.1-3.2,0.2c-0.1,1.2-0.2,2-0.2,2.9
		c0.1,17.8,0.2,35.6,0.2,53.4c0.1,47.2,0.2,94.4,0.2,141.6c0,20.6-0.1,41.2-0.3,61.9c0,2.4,0.6,3.6,3.2,3.7c2.9,0.1,5.8,0.7,8.7,0.7
		c40.1,0.5,80.1,1.2,120.2,1.3c54.6,0.2,109.3-0.1,163.9-0.1c1.1,0,2.2-0.1,3.3-0.2c0-0.2,0-0.5,0-0.7
		C703.6,562.3,702.2,562.2,700.7,562.1z M-2.5,290c48.8,0.1,102.9,0.5,151.7,0.5c47.7,0,95.5-0.3,143.2-0.3c3.1,0,3.9-0.8,3.9-4
		c-0.1-76.8-0.1-153.6,0-230.3c0-10.4,0-20.7,0-31.6c-1.6,0-2.6,0-3.7,0c-32.9,0.3-65.9,0.6-98.8,0.9c-31.3,0.2-62.6,0.4-93.9,0.5
		c-33.6,0.1-67.2,0.1-100.8,0.1 M405.6-250.9c-0.1,1.1-0.3,1.5-0.3,1.9c0.1,25.7,0.4,51.4,0.4,77.1c0,59.7-0.2,119.4-0.3,179.1
		c0,4.9,0,4.9,4.9,4.9c45.3,0,90.7,0.1,136,0.1c51.9,0,103.9-0.1,155.8-0.2c5.2,0,5.3-0.1,5.3-5.2c-0.2-56.1-0.3-112.3-0.5-168.4
		c-0.1-28.4-0.1-56.8-0.2-85.2c0-4.3-0.3-4.6-4.6-4.6c-6.3,0-12.5,0-18.8,0c-72.8,0.2-145.6,0.3-218.3,0.5
		C445.3-250.9,425.6-250.9,405.6-250.9z M296.4,563.2c0.1-1.6,0.2-2.8,0.2-3.9c-0.1-32.1-0.3-64.1-0.3-96.2c-0.1-53-0.1-106,0-159
		c0-2.8-0.7-3.7-3.6-3.6c-14.8,0.3-29.6,0.5-44.4,0.5c-82.6-0.1-165.2-0.4-247.8-0.6c-6.7,0-6-0.8-6,6.1c0.1,45.7,0.2,91.3,0.3,137
		c0.1,38.8,0,77.5,0,116.3c0,4.3,0.6,4.9,4.9,4.8c12.4-0.2,24.8-0.5,37.2-0.9c10.2-0.3,20.5-0.8,30.7-0.8c27.2,0,54.4,0.2,81.6,0.3
		c27.4,0,54.8-0.1,82.2-0.1c11.9,0,23.7,0.1,35.6,0.1C276.7,563.2,286.3,563.2,296.4,563.2z M-4-2 M-7.5-10C9.2-10.1-16.7,17.1,0,17
		c47.3-0.3,144-1.9,191.3-2.2c34-0.2,68-0.4,102-0.4c2.5,0,3.1-0.9,3-3.2c-0.2-8.4-0.2-16.8-0.2-25.3 M1029.1,800
		C1029,798.8,1027.9,821.9,1029.1,800c0-22,0-12.8,0-34.9c-0.2-44.2-0.4-88.3-0.6-132.5c0-9.2-0.1-18.4-0.2-27.5
		c-0.1-4.1-1.5-5.8-4.9-5.8c-13.6-0.2-27.2-0.5-40.8-0.4c-18.2,0.1-36.5,0.8-54.7,0.8c-40.5,0.1-81,0.1-121.5-0.1
		c-27.3-0.1-54.7,1-82.6-2.4c-0.3,2.3-0.7,4.2-0.7,6.1c0.1,77.6,0.3,119.1,0.4,196.7 M712.8,800c-0.1-70.2-0.1-105.6-0.2-175.8
		c0-7.3-0.1-14.7-0.2-22c0-2.6-1.1-3.8-3.8-4.1c-4.2-0.5-8.1,0.6-12.2,0.8c-11.4,0.5-22.9,0.6-34.3,0.5c-30.3-0.2-60.7-0.7-91-0.9
		c-37.1-0.3-86.3-0.5-123.4-0.6c-7,0-14,0.3-21,1.2c-5.1,0.7-9.8,3-12.8,7.7c-3.7,5.8-4.7,12.2-4.7,18.9c0,34.3-0.1,68.7-0.1,103
		c0,35.1,1.6,36.2,1.6,71.3 M294.9,800c-0.2-22.3,0-8.1-0.1-30.4c-0.2-37-0.3-74.1-0.6-111.1c-0.1-13.1-0.2-26.1-1-39.2
		c-0.3-6.4-2.4-12.7-9.2-15.1c-4.4-1.6-17.2-2.8-21.8-3c-17-0.5-34.1-0.5-51.2-0.6c-35.3-0.1-70.6-0.3-105.9-0.1
		c-11.1,0.1-22.1,1.2-33.2,1.8c-3.2,0.2-6.5,0.4-9.7,0.2c-11.4-0.6-22.7-0.4-34.1-0.9c-9.8-0.4-19.6,1.6-29.4,1.2
		c-2.7-0.1-3.9-2.3-3.8,0.3c0,1,0,1.9,0,2.9c0.1,28.3,0.1,56.6,0.2,84.8c0.3,48.4,0.5,60.7,0.8,109.1 M351.1-187.4
		c-1.8,359.4-1.7,695-0.8,1054.4C353.6,870.3,353.5,172,351.1-187.4z M306.3,12.2c0.3,0,0.5,0.1,0.8,0.1c0-46.3-2.6,9.5-2.6-36.8
		c-0.3,0,0-17.5,1.8-3C309-13,306.3-34,306.3,12.2z M724.2,562.8c0,0.2,0.1,0.3,0.1,0.5c23.7,0,47.4,0,71.2,0c0-0.2,0-0.3,0-0.5
		C771.7,562.8,748,562.8,724.2,562.8z M350.6-224.8c0.2,0,0.5,0,0.7,0c0-23,0-46,0-69.1c-0.2,0-0.5,0-0.7,0
		C350.6-270.8,350.6-247.8,350.6-224.8z M351.1-374.3c-0.1,0-0.2-0.1-0.3-0.1c0,24.1,0,48.1,0,72.2c0.1,0,0.2,0,0.3,0
		C351.1-326.3,351.1-350.3,351.1-374.3z M350.5-190.2c0.3,0,0.6,0,0.8,0c0-10.5,0-20.9,0-31.4c-0.3,0-0.6,0-0.8,0
		C350.5-211.1,350.5-200.6,350.5-190.2z M824.6,563.8c0,0.1,0,0.1,0,0.2c11.4,0,22.8,0,34.2,0c0-0.1,0-0.1,0-0.2
		C847.5,563.8,836,563.8,824.6,563.8z M306.7-329c0.1,0,0.2,0.1,0.3,0.1c0-6.7,0-13.3,0-20c-0.1,0-0.2,0-0.3,0
		C306.7-342.2,306.7-335.6,306.7-329z"/>
</g>
</svg>
